<svg xmlns="http://www.w3.org/2000/svg" viewBox="0 0 932 313"><path fill="#fbfbfb" stroke="#fbfbfb" d="M0 156.501v156.501l466.25-.251 466.25-.251.253-156.25L933.006 0H0v156.501m.488.499c0 86.075.118 121.287.262 78.25.144-43.038.144-113.463 0-156.5C.606 35.712.488 70.925.488 157m234.848-59.17-4.165.67 3.27 8c2.884 7.056 17.215 35.977 27.02 54.53 4.367 8.265 4.124 10.556-5.466 51.42-1.027 4.372-1.644 8.31-1.372 8.75.272.44 8.265.8 17.762.8h17.267l3.287-15.25c9.489-44.03 4.392-35.324 45.201-77.201 8.602-8.827 18.641-19.424 22.31-23.549l6.671-7.5-20.81-.28-20.811-.28-19.226 19.721c-10.574 10.846-19.407 19.522-19.627 19.28-1.27-1.396-5.061-9.987-6.332-14.348-3.693-12.682-9.25-23.33-12.515-23.983-4.847-.969-27.856-1.523-32.464-.78m532.531.231c-11.298 2.673-20.841 10.255-22.881 18.178a200.27 200.27 0 0 1-2.524 8.761c-.785 2.475-2.109 8.1-2.942 12.5-.833 4.4-2.16 10.925-2.949 14.5-.789 3.575-2.124 10.325-2.965 15a1740.748 1740.748 0 0 1-3.671 19.496c-3.368 17.307-1.689 26.538 5.877 32.31l3.53 2.694 43.844.29c57.319.378 55.749.968 60.726-22.81.516-2.464 2.098-9.88 3.516-16.48 1.419-6.6 3.472-16.275 4.564-21.5 1.093-5.225 2.91-13.775 4.038-19 9.714-44.962 9.672-44.998-52.53-44.867-17.6.037-33.635.455-35.633.928m-673.168 5.168c-1.495 5.251-3.68 14.72-7.562 32.771-1.751 8.139-5.766 26.11-11.618 52C71.404 206.202 69 217.957 69 219.87c0 2.084.344 2.13 15.918 2.13 17.704 0 19.082-.249 19.082-3.444 0-1.227 1.614-8.491 3.588-16.143 1.973-7.652 4.176-16.613 4.896-19.913.72-3.3 2.705-12.294 4.412-19.987 1.707-7.692 3.104-14.33 3.104-14.75 0-1.76 1.808-.582 2.282 1.487.601 2.625.559 2.505 9.623 27.25 6.587 17.983 11.289 29.986 15.97 40.768l2.07 4.769 23.277-.269 23.278-.268 3.773-15c2.075-8.25 4.446-18.15 5.269-22 .823-3.85 2.35-10.825 3.394-15.5 1.044-4.675 2.643-12.1 3.553-16.5 2.573-12.437 5.487-24.428 7.532-31 1.027-3.3 2.857-9.375 4.067-13.5 1.211-4.125 2.409-8.062 2.663-8.75.36-.972-3.665-1.25-18.077-1.25-18.381 0-18.544.019-19.142 2.25-1.655 6.184-2.619 10.227-5.067 21.25-1.465 6.6-3.577 15.375-4.693 19.5-2.885 10.665-5.301 21.106-7.291 31.5-2.676 13.986-3.048 13.648-11.539-10.5-.677-1.925-3.359-9.125-5.961-16-2.601-6.875-5.463-14.75-6.359-17.5-.896-2.75-4.44-10.625-7.875-17.5L134.5 98.5l-19.15-.271-19.15-.271-1.501 5.271m289.338-2.933c-11.774 4.749-16.812 13.481-21.717 37.64-6.899 33.983-2.865 37.006 49.43 37.044 25.072.018 29.595.453 26.25 2.52-.55.34-1.003 2.054-1.006 3.809-.008 4.73-1.863 10.56-4.059 12.756-1.848 1.848-3.707 1.935-41.193 1.935h-39.258l-1.807 4.75c-3.091 8.124-5.562 20.357-4.216 20.874.647.248 22.521.322 48.608.164l47.431-.288 6.461-2.461c13.018-4.958 19.422-15.636 23.593-39.338 2.965-16.849 1.421-24.989-5.381-28.374-3.244-1.614-7.291-1.885-34.673-2.327l-31-.5v-9.544c0-7.479.387-10.134 1.786-12.27l1.786-2.725 21.714.27 21.714.269.313 3.25.314 3.25H482v-7h48.23l-.701 5.75c-.637 5.217-5.355 29.332-13.353 68.25-1.639 7.975-3.277 16.637-3.64 19.25l-.659 4.75H546.622l1.161-4.75c.639-2.613 3.459-15.775 6.268-29.25 2.808-13.475 5.965-28.325 7.015-33a2205.48 2205.48 0 0 0 3.944-18c1.118-5.225 2.279-10.287 2.579-11.25.499-1.601 2.534-1.75 23.933-1.75h23.387l.651 3.47.651 3.47 12.145.28c15.306.353 22.302-.769 24.357-3.905 2.202-3.36 29.393-3.593 33.595-.287 4.997 3.93 4.504 14.032-1.06 21.723-3.681 5.09-6.924 6.249-17.476 6.249-10.297 0-12.676-.94-14.692-5.808-1.13-2.726-1.465-2.861-6.008-2.425-2.942.283-5.08.029-5.501-.652-.448-.725-5.134-1.115-13.405-1.115H615.45l-1.82 10.25c-1 5.637-2.405 13.175-3.121 16.75-4.865 24.294-6.791 34.183-7.598 39-.506 3.025-1.152 6.512-1.435 7.75l-.514 2.25h34.947l.635-3.75c.349-2.062 1.47-6.9 2.491-10.75 1.021-3.85 2.345-9.925 2.943-13.5.598-3.575 1.337-7.752 1.641-9.282l.554-2.782 11.049.282 11.049.282 2.386 10c1.313 5.5 3.018 12.025 3.791 14.5a427.608 427.608 0 0 1 3.006 10.25l1.602 5.75h19.472c14.912 0 19.472-.293 19.471-1.25-.004-3.216-4.486-24.168-8.646-40.422-.427-1.668.105-2.516 2.295-3.655 6.435-3.346 8.951-8.765 14.244-30.673 6.336-26.221 6.305-34.649-.149-41.103-6.969-6.969 8.498-6.375-171.743-6.601l-162.5-.203-5.463 2.203m397.282 24.451c-1.189.791-5.743 16.366-8.846 30.253a828.132 828.132 0 0 1-3.146 13.5c-2.809 11.468-5.003 24.406-4.325 25.503 2.136 3.457 37.142 4.245 41.354.931 2.696-2.12 4.925-8.268 6.14-16.934.347-2.475 1.262-7.425 2.033-11 5.894-27.318 7.569-39.134 5.815-41-1.561-1.66-36.715-2.789-39.025-1.253" fill-rule="evenodd"/><path fill="#f52c32" stroke="#f52c32" d="M0 156.501v156.501l466.25-.251 466.25-.251.253-156.25L933.006 0H0v156.501m.488.499c0 86.075.118 121.287.262 78.25.144-43.038.144-113.463 0-156.5C.606 35.712.488 70.925.488 157M773.5 97.018c-13.208 1.17-22.613 6.073-26.967 14.059-1.786 3.275-6.273 19.157-8.172 28.923-.802 4.125-2.337 12-3.411 17.5-1.075 5.5-2.605 13.708-3.402 18.24-.797 4.532-1.918 9.932-2.493 12-3.385 12.191-.134 27.238 6.916 32.01 3.318 2.245 29.863 3.088 84.529 2.683 15.116-.111 20.261-4.703 23.458-20.933.902-4.579 2.805-13.561 8.053-38 1.063-4.95 3.053-13.862 4.421-19.804 7.749-33.652 7.244-38.743-4.353-43.954-7.195-3.233-54.364-4.868-78.579-2.724M95.436 98.104c-1.013 1.638-5.026 18.841-11.291 48.396-1.05 4.95-3.101 13.76-4.56 19.578-1.458 5.818-3.034 12.793-3.502 15.5-.469 2.707-2.219 10.835-3.89 18.062-1.67 7.227-3.349 15.214-3.729 17.75l-.691 4.61h35.967l1.218-6.25c.669-3.437 2.69-11.875 4.491-18.75 3.435-13.115 7.596-31.181 9.616-41.75 1.475-7.715 2.093-7.786 4.355-.5 3.563 11.473 16.797 46.549 22.544 59.75.958 2.2 2.018 4.787 2.357 5.75.795 2.257 48.439 2.742 49.123.5.63-2.066 8.253-34.587 10.372-44.25 1.086-4.95 2.989-13.725 4.229-19.5 5.015-23.353 11.649-48.291 15.502-58.272.642-1.664-.49-1.755-18.569-1.5l-19.254.272-1.783 6.5c-2.505 9.129-15.474 63.192-16.985 70.802-1.426 7.18-2.059 7.013-5.056-1.329-14.946-41.605-19.095-52.106-25.471-64.473L134.5 97.5l-19.178-.271c-13.6-.193-19.384.062-19.886.875m135.565.146c.001 3.293 15.036 35.053 31.279 66.075 1.948 3.72 1.958 4.076.355 13-2.2 12.251-4.301 22.445-6.674 32.389C252.731 223.243 251.058 222 272.5 222H291v-2.566c0-2.527 2.363-13.733 5.996-28.434 1.019-4.125 2.16-9.465 2.536-11.866 1.655-10.579 3.022-12.293 40.002-50.134C357.592 110.522 368 99.134 368 97.855c0-.47-9.603-.855-21.339-.855h-21.339l-18.835 19.5c-10.359 10.725-19.094 19.492-19.411 19.482-.883-.027-4.65-8.728-6.918-15.982-1.118-3.575-3.593-9.919-5.501-14.098l-3.468-7.597-6.241-.653c-11.408-1.192-33.948-.795-33.947.598m156.816-.274c-14.491 4.405-20.177 12.441-25.493 36.024-5.215 23.136-3.781 32.59 5.765 38l4.411 2.5 32.753.312 32.754.312-.457 2.188a1002.89 1002.89 0 0 0-1.544 7.675c-.598 3.018-1.754 6.505-2.569 7.75L431.954 195h-79.586l-2.138 5.25c-2.065 5.07-5.23 17.362-5.23 20.312 0 1.231 6.947 1.436 48.25 1.425 52.912-.014 56.299-.355 64.311-6.466 12.963-9.887 22.555-52.527 13.859-61.604-4.832-5.044-7.375-5.393-39.42-5.405l-29.5-.012v-10.34c0-14.566-.66-14.16 23.046-14.16 20.461 0 23.155.536 23.633 4.698l.321 2.802h33l.5-3.5.5-3.5h46l-.332 4c-.183 2.2-2.107 13-4.277 24-3.681 18.659-5.158 25.744-9.901 47.5-1.019 4.675-2.161 11.537-2.538 15.25l-.685 6.75h35.894l3.256-15.75c4.656-22.522 9.74-46.086 12.567-58.25 1.342-5.775 2.992-13.2 3.666-16.5.675-3.3 1.704-6.331 2.288-6.735 1.274-.881 41.717-1.026 43.98-.158.87.334 1.582 1.422 1.582 2.418 0 4.829.43 4.975 14.664 4.975 14.765 0 21.865-1.252 23.404-4.127 1.485-2.775 30.729-2.86 33.229-.097 4.528 5.003 2.402 17.647-3.897 23.177-5.063 4.446-23.931 4.731-27.327.412-1.14-1.449-2.073-3.182-2.073-3.852 0-.805-2.788-1.434-8.25-1.859-8.455-.658-29.75-.903-29.75-.341 0 .868-10.132 52.086-11.411 57.687-.817 3.575-1.764 8.3-2.106 10.5-.341 2.2-.865 5.023-1.165 6.273l-.546 2.273 18.306-.273 18.306-.273 1.217-6.5c.67-3.575 1.656-7.629 2.192-9.01.536-1.38 1.768-7.343 2.737-13.25l1.763-10.74h9.853c5.42 0 10.181-.113 10.58-.25.805-.277 1.034.452 4.615 14.75 1.378 5.5 3.492 13.488 4.697 17.75l2.191 7.75h20.386c11.212 0 20.385-.113 20.385-.252 0-.578-4.181-20.889-5.917-28.748-3.47-15.699-3.573-14.137 1.154-17.526 4.951-3.551 6.361-6.806 11.253-25.974 8.446-33.092 7.923-40.886-3.244-48.3l-5.572-3.7-162.087-.17c-89.148-.094-163.295.197-164.77.646m392.238 30.774c-.564 2.063-1.726 6.225-2.582 9.25-4.074 14.391-12.722 54.789-11.984 55.983 1.664 2.692 37.72 3.043 40.646.395 2.036-1.842 4.442-8.776 5.338-15.378.335-2.475 1.452-8.325 2.482-13 2.572-11.676 5.834-28.543 6.605-34.161.905-6.586.111-6.839-21.454-6.839H781.08l-1.025 3.75" fill-rule="evenodd"/><path fill="#0d0e0e" stroke="#0d0e0e" d="M0 156.501v156.501l466.25-.251 466.25-.251.253-156.25L933.006 0H0v156.501m.488.499c0 86.075.118 121.287.262 78.25.144-43.038.144-113.463 0-156.5C.606 35.712.488 70.925.488 157m83.991-96.199C71.645 65.239 62.901 76.185 59.557 92a717.994 717.994 0 0 1-3.126 14c-.847 3.575-1.912 8.075-2.366 10-.455 1.925-1.993 8.675-3.419 15a3536.615 3536.615 0 0 1-10.575 45.5 3999.08 3999.08 0 0 0-5.651 24c-1.398 6.05-3.417 14.262-4.487 18.249-5.44 20.277-4.872 27.228 2.877 35.216 6.763 6.973 7.134 7.023 51.532 7.029 37.333.006 38.941-.072 41.385-1.994 1.399-1.1 3.087-2 3.753-2 .665 0 2.025.9 3.02 2 2.946 3.255 75.603 3.088 82.164-.189 4.218-2.107 4.561-2.128 9.11-.578 5.688 1.939 99.258 2.867 181.726 1.803l49-.632 8.5-3.117c4.675-1.714 9.976-3.709 11.781-4.433 3.144-1.261 3.408-1.18 6.325 1.941 5.954 6.37 4.445 6.127 42.498 6.853 31.998.611 35.471.515 40.689-1.127 5.339-1.679 5.979-1.689 9.989-.157 7.269 2.776 81.693 2.447 82.428-.364.653-2.495 1.477-2.531 2.977-.13 1.129 1.808 4.001 1.855 87.49 1.433 50.045-.253 88.475-.847 91.443-1.413 13.047-2.491 29.015-14.131 34.146-24.89 1.953-4.095 5.294-15.912 9.754-34.5.924-3.85 2.332-9.7 3.129-13 .797-3.3 3.011-13.65 4.921-23 1.909-9.35 4.327-20.825 5.371-25.5 8.434-37.744 6.943-50.308-7.605-64.066-13.765-13.019-23.868-14.935-78.717-14.93-42.511.004-53.356.77-61.997 4.381-5.138 2.147-10.41 2.039-15.749-.323C722.939 59.11 716.988 59 512.13 59H313.707l-4.675 4.25c-10.394 9.448-9.145 9.317-16.61 1.735L286.5 58.97l-54 .265-54 .265-4.826 2.376c-3.289 1.619-5.339 3.451-6.436 5.75-2.069 4.341-2.529 4.259-5.609-.996-4.409-7.524-5.003-7.635-40.78-7.597-27.109.028-32.028.267-36.37 1.768m1.193 20.307c-4.155 2.192-6 5.52-7.15 12.892-.386 2.475-1.98 9.675-3.543 16-1.562 6.325-4 17.037-5.418 23.805-1.418 6.768-3.678 16.893-5.022 22.5-7.691 32.07-10.665 45.09-12.036 52.695l-3.065 16.993c-.843 4.671-1.281 9.497-.973 10.724l.56 2.232 34.587.276c40.497.322 36.388 1.977 36.388-14.659V213h4.421c4.047 0 4.473.241 5.046 2.852.345 1.568 2.523 7.531 4.841 13.25l4.214 10.398h69.434l2.449-2.5c1.941-1.98 2.991-5.202 5.056-15.5 1.434-7.15 3.239-15.25 4.012-18 1.615-5.75 4.969-20.138 10.001-42.912 3.31-14.979 4.056-17.514 4.857-16.505 1.042 1.315 8.058 16.049 10.25 21.526l2.58 6.449-2.66 11.221c-11.848 49.983-12.26 53.03-7.501 55.441 1.89.957 10.06 1.207 33.461 1.023l30.96-.243 2.092-3.104c1.997-2.965 3.002-6.891 9.057-35.396 4.687-22.064 4.428-21.416 13.245-33.105 4.629-6.137 16.168-18.895 17.09-18.895.42 0 .374 2.813-.103 6.25-1.315 9.474.709 17.47 6.077 24.006 1.788 2.177 1.972 2.049-5.899 4.123-3.586.945-7.148 2.107-7.917 2.582-1.618 1-5.038 16.415-8.105 36.526-1.173 7.693-2.346 14.332-2.606 14.752-1.521 2.461 7.582 2.821 62.563 2.473 31.672-.199 59.385-.718 61.585-1.152 17.536-3.458 32.03-17.886 36.347-36.18.504-2.134 2.372-9.055 4.153-15.38 3.196-11.35 3.232-11.724 2.811-28.75l-.426-17.25h8.808c6.389 0 8.802.343 8.787 1.25-.01.688-.693 4.85-1.517 9.25s-1.684 9.125-1.912 10.5c-1.479 8.941-2.985 16.483-5.987 30a4201.946 4201.946 0 0 0-3.507 16c-1.134 5.225-2.281 10.087-2.549 10.804-1.885 5.05-2.453 14.391-1.077 17.686l1.467 3.51h30.969c17.033 0 31.698-.28 32.588-.621 3.436-1.319 8.071-17.324 14.143-48.837 1.382-7.173 3.349-16.642 4.371-21.042 1.021-4.4 2.852-12.387 4.067-17.75l2.211-9.75h16.777l-.646 4.25c-.355 2.338-1.23 6.05-1.944 8.25-4.134 12.732-15.672 73.556-15.236 80.315l.302 4.685 32.55.263 32.55.264 2.727-2.847c2.597-2.71 4.85-9.076 6.171-17.43.86-5.439 1.825-4.664 4.359 3.5 2.815 9.071 5.282 15.031 6.615 15.985.566.404 37.703.732 82.528.729l81.5-.006 6.885-2.43c14.929-5.268 19.03-11.802 25.119-40.028l4.534-21c13.31-61.442 14.414-68.712 11.844-78-1.398-5.056-7.387-10.716-15.382-14.539-9.282-4.439-18.086-5.116-62-4.767-44.074.349-43.11.196-55.36 8.789l-6.06 4.251-7.79-4.645c-14.954-8.917 7.21-8.055-214.875-8.354l-197.085-.264-13.915 13.441c-16.044 15.497-13.878 15.483-21.517.136-2.724-5.473-5.689-10.765-6.589-11.759-1.542-1.704-4.459-1.793-50.722-1.548L178.5 79.5l-7.062 21.5-7.061 21.5-2.756-7.5c-3.717-10.114-14.25-31.629-16.669-34.048-3.043-3.043-53.469-2.91-59.28.156M774 95.963c-13.147 1.185-23.963 7.16-28.25 15.609-1.794 3.533-6.038 18.928-8.251 29.928-3.317 16.487-5.575 28.256-7.003 36.5-.81 4.675-1.908 10.525-2.44 13-2.741 12.733.411 24.662 7.79 29.489l3.654 2.39 44.5.237c59.705.318 55.895 2.587 64.024-38.116 2.05-10.269 5.603-26.87 8.986-42 4.962-22.187 5.972-28.262 5.345-32.179-1.143-7.151-6.897-11.909-16.855-13.938-5.577-1.137-61.163-1.852-71.5-.92M95.211 97.75c-1.546 3.148-4.864 16.699-10.222 41.75-1.177 5.5-3.674 16.525-5.549 24.5-6.367 27.078-11.375 50.487-11.658 54.5l-.282 4 18.225.272 18.226.273.496-2.273c3.061-14.01 5.902-25.739 6.727-27.772.557-1.375 1.628-5.65 2.379-9.5 3.233-16.58 6.917-32.5 7.521-32.5.359 0 1.433 2.588 2.388 5.75.954 3.162 3.491 10.329 5.637 15.925 2.145 5.596 3.901 10.45 3.901 10.788 0 .962 10.924 28.445 13.628 34.287l2.431 5.25h48.799l1.168-5.75c.642-3.162 2.267-10.025 3.61-15.25s3.049-12.65 3.791-16.5c.742-3.85 2.958-14.2 4.924-23 8.317-37.229 7.472-33.92 14.096-55.204C229.302 94.908 230.897 96 208.949 96h-19.051l-1.357 3.25c-.747 1.787-2.078 6.625-2.958 10.75-.88 4.125-3.415 14.7-5.635 23.5-5.903 23.407-6.814 27.218-8.487 35.477-2.005 9.902-2.738 10.287-5.369 2.818-1.22-3.462-3.481-9.895-5.024-14.295-1.543-4.4-4.385-11.825-6.316-16.5-1.93-4.675-4.066-10.3-4.745-12.5-1.569-5.077-11.6-26.113-14.187-29.75L133.864 96h-18.897c-17.003 0-18.983.175-19.756 1.75m135.211-.408c-.333.87.11 3.018.986 4.773.875 1.756 1.592 3.675 1.592 4.266 0 .59 6.828 14.765 15.173 31.499l15.174 30.427-1.658 9.596c-.911 5.279-3.026 15.672-4.699 23.097-1.673 7.425-3.314 15.412-3.646 17.75l-.604 4.25h19.161c14.479 0 19.246-.305 19.506-1.25.189-.687.845-4.175 1.457-7.75.612-3.575 1.75-9.425 2.53-13 .78-3.575 2.384-10.967 3.566-16.426 3.516-16.248 4.228-17.274 31.323-45.074 28.212-28.946 38.853-40.59 38.385-41.998-.205-.616-8.582-1.109-21.751-1.28l-21.417-.278-18.5 19.059c-10.175 10.483-19.007 19.046-19.627 19.028-1.304-.036-4.447-7.078-6.725-15.064-2.33-8.17-8.34-20.623-10.375-21.497-3.983-1.712-39.2-1.825-39.851-.128m157.078.057c-14.979 4.737-20.393 12.353-26.042 36.629-3.872 16.64-3.864 28.262.024 33.359 5.75 7.539 11.578 8.566 48.787 8.593l26.769.02-.456 2.25c-.251 1.238-.732 4.275-1.07 6.75-.337 2.475-1.272 5.507-2.078 6.739l-1.465 2.238-40.036.262-40.036.261-2.415 5.943c-2.035 5.005-5.482 18.63-5.482 21.664 0 .512 20.652.893 48.37.893 52.47 0 54.771-.216 64.157-6.017 13.253-8.19 24.734-50.896 16.664-61.983-4.41-6.059-6.833-6.471-39.941-6.804l-30.25-.304-.183-6.196c-.51-17.275-1.295-16.696 22.624-16.696 21.978 0 22.559.106 22.559 4.107V132l15.25.014c8.387.007 16.249.281 17.471.609 1.966.527 2.296.125 2.878-3.514l.657-4.109h44.813l-.654 5.25c-.36 2.887-1.006 7.05-1.436 9.25-.43 2.2-1.933 9.928-3.34 17.173-1.408 7.246-3.279 16.246-4.158 20-3.991 17.041-8.422 40.38-8.464 44.577-.016 1.604 1.515 1.75 18.294 1.75h18.311l1.164-4.75c.64-2.613 3.475-15.55 6.299-28.75 2.825-13.2 6.149-28.5 7.387-34 1.238-5.5 3.276-14.613 4.527-20.25l2.276-10.25h44.634l.641 3.414.64 3.414 9.155.614c10.774.724 12.03.686 20.946-.632 5.327-.788 7.115-1.499 8.295-3.301 1.484-2.265 1.711-2.29 16.21-1.787 9.355.324 15.168.945 15.979 1.704 2.369 2.22 2.605 10.627.438 15.574-3.474 7.928-5.992 9.446-16.341 9.851-10.897.427-14.35-.739-15.875-5.361-1.233-3.736 1.771-3.293-25.464-3.754l-13.967-.236-.718 4c-.785 4.373-5.049 25.882-7.334 37-.792 3.85-2.388 11.725-3.547 17.5-1.16 5.775-2.506 12.297-2.993 14.494-.487 2.197-.535 4.345-.106 4.774.429.429 8.81.656 18.625.506l17.845-.274 3.254-13.5c1.79-7.425 3.546-15.75 3.903-18.5 1.189-9.156.401-8.603 11.833-8.284 10.019.28 10.176.322 10.461 2.784.338 2.918 4.222 18.031 7.583 29.5l2.343 8 21.256.27 21.256.27-.702-2.77c-.386-1.523-1.299-5.92-2.029-9.77-2.428-12.813-5.346-25.975-6.334-28.574-.889-2.338-.564-2.873 3.645-5.997 4.889-3.628 5.132-4.154 10.368-22.429 2.714-9.471 6.825-31.019 6.825-35.77 0-9.213-7.684-18.496-17.109-20.669-7.012-1.616-320.24-1.291-325.391.338m394.109 29.425c-1.563 2.529-15.456 60.739-15.57 65.235-.096 3.81 35.957 5.064 40.015 1.392.97-.878 2.442-4.375 3.273-7.773 2.029-8.307 4.744-20.989 5.341-24.953.267-1.774 1.321-7.05 2.343-11.725 2.881-13.184 3.549-21.032 1.88-22.089-1.762-1.115-36.596-1.197-37.282-.087m12.074 15.926c-.534.921-4.882 18.897-8.223 34-.465 2.1-.164 2.25 4.502 2.25 4.384 0 5.056-.277 5.453-2.25.25-1.238 1.627-8.775 3.061-16.75s2.843-15.287 3.133-16.25c.546-1.817-6.907-2.757-7.926-1" fill-rule="evenodd"/></svg>