<?xml version="1.0" standalone="no"?>
<!DOCTYPE svg PUBLIC "-//W3C//DTD SVG 20010904//EN"
 "http://www.w3.org/TR/2001/REC-SVG-20010904/DTD/svg10.dtd">
<svg version="1.0" xmlns="http://www.w3.org/2000/svg"
 width="300.000000pt" height="101.000000pt" viewBox="0 0 300.000000 101.000000"
 preserveAspectRatio="xMidYMid meet">
<metadata>
Created by potrace 1.10, written by Peter Selinger 2001-2011
</metadata>
<g transform="translate(0.000000,101.000000) scale(0.050000,-0.050000)"
fill="#000000" stroke="none">
<path d="M773 1826 c-8 -8 -34 -15 -59 -16 -24 -2 -73 -4 -108 -6 -35 -2 -77
-18 -95 -35 -17 -18 -31 -26 -31 -20 0 16 -72 -23 -122 -65 -21 -18 -38 -44
-38 -58 0 -15 -9 -26 -20 -26 -11 0 -20 -13 -20 -29 0 -15 -14 -42 -31 -59
-17 -18 -26 -40 -20 -50 6 -11 2 -25 -10 -33 -12 -7 -17 -26 -11 -41 6 -15 2
-28 -8 -28 -11 0 -16 -27 -12 -60 4 -33 -2 -60 -12 -60 -10 0 -13 -9 -5 -21 7
-11 4 -32 -7 -45 -10 -13 -25 -78 -32 -144 -20 -191 -21 -199 -39 -212 -9 -7
-21 -50 -27 -95 -6 -46 -20 -83 -30 -83 -10 0 -13 -9 -6 -20 7 -11 2 -20 -10
-20 -12 0 -18 -7 -13 -15 5 -8 15 -63 21 -122 14 -123 23 -143 64 -143 17 0
25 -9 18 -20 -7 -11 1 -20 18 -20 16 0 44 -20 60 -44 39 -56 57 -59 322 -57
121 1 247 0 280 -1 33 -2 89 -4 125 -4 36 -1 65 -9 65 -19 0 -9 11 -10 25 -1
35 22 1294 21 1280 -2 -7 -11 0 -11 17 -1 37 23 238 24 238 2 0 -10 11 -9 25
2 14 11 86 18 160 16 74 -2 135 3 135 10 0 8 32 12 70 8 39 -4 70 0 70 8 0 8
17 14 39 14 21 0 34 -6 29 -14 -10 -17 26 -19 346 -22 152 -2 239 -10 232 -22
-7 -11 -2 -13 11 -5 30 19 543 30 543 12 0 -7 14 -13 30 -13 17 0 30 5 30 11
0 17 426 13 453 -4 13 -8 28 -3 34 11 8 19 10 19 11 -1 1 -15 12 -20 24 -12
32 19 356 24 423 6 37 -10 55 -8 55 8 0 13 26 24 58 24 32 0 54 -7 49 -15 -15
-25 21 -17 66 14 23 16 47 24 54 17 7 -7 13 -2 13 12 0 13 9 19 20 12 12 -7
15 -23 7 -34 -8 -13 -4 -16 10 -8 13 8 23 26 23 41 0 14 23 42 51 60 60 39
135 111 116 111 -7 0 2 17 21 38 18 20 38 63 44 94 6 31 17 62 24 68 8 5 15
28 16 50 4 78 29 198 44 209 9 6 15 25 14 41 0 17 12 40 28 52 20 16 22 26 5
36 -13 8 -23 25 -23 38 0 15 8 12 21 -6 14 -22 18 -10 12 45 -6 63 -1 75 30
75 28 0 36 14 34 55 -2 47 -4 49 -11 10 -5 -25 -22 -45 -38 -45 -25 0 -24 9 3
62 18 35 28 80 23 100 -6 21 0 38 13 38 13 0 10 9 -7 20 -16 11 -21 20 -11 20
10 0 8 11 -5 24 -13 13 -24 36 -24 51 0 16 -13 41 -30 58 -16 16 -30 47 -30
68 0 22 -10 39 -21 39 -12 0 -16 8 -10 19 6 10 1 25 -12 33 -15 9 -18 5 -8
-11 11 -17 4 -22 -22 -17 -20 5 -35 19 -32 32 3 13 -2 22 -10 20 -23 -6 -165
50 -165 65 0 12 -38 16 -195 17 -39 1 -65 11 -66 26 0 15 -9 11 -21 -9 -12
-21 -30 -30 -44 -21 -32 21 -101 21 -116 1 -6 -9 -32 -8 -58 1 -26 10 -79 12
-118 4 -109 -20 -654 1 -737 28 -27 9 -45 7 -45 -6 0 -14 -109 -20 -318 -17
-212 3 -315 11 -307 24 7 12 -1 10 -17 -3 -32 -26 -93 -28 -678 -25 -203 1
-386 -4 -405 -11 -23 -9 -39 -3 -47 18 -10 27 -18 28 -42 9 -23 -19 -33 -18
-47 4 -12 18 -19 20 -19 5 0 -17 -42 -22 -140 -19 -77 3 -140 -3 -140 -12 0
-9 -11 -15 -25 -13 -14 2 -40 -2 -58 -10 -19 -8 -50 -6 -71 5 -20 10 -184 20
-364 22 -181 2 -336 7 -345 13 -10 6 -17 2 -17 -9 0 -10 -36 -18 -80 -17 -44
1 -80 7 -80 14 0 6 -18 13 -40 15 -22 1 -40 -5 -40 -13 0 -9 -22 -12 -50 -7
-27 5 -50 18 -50 27 0 21 -28 24 -47 4z m254 -228 l29 -42 42 42 c65 65 734
65 789 0 l36 -42 45 42 45 43 1349 -9 c741 -5 1371 -9 1398 -10 28 -1 214 4
414 10 590 18 685 -63 595 -508 -117 -579 -155 -675 -290 -744 -104 -54 -2322
-61 -2380 -9 -29 26 -41 26 -105 -1 -63 -26 -253 -29 -1416 -25 l-1344 5 -39
53 -39 52 53 228 c30 125 85 360 122 523 97 423 106 432 443 433 205 1 226 -3
253 -41z"/>
<path d="M553 1494 c-19 -14 -44 -61 -54 -105 -40 -170 -199 -885 -199 -897 0
-6 108 -12 240 -12 l240 0 0 80 c0 54 9 80 27 80 15 0 37 -36 51 -80 l24 -80
239 0 c175 0 242 7 248 25 4 14 32 133 61 265 74 333 74 332 119 232 37 -82
37 -86 -8 -295 -54 -255 -61 -246 193 -247 224 0 229 4 273 222 41 207 193
450 193 310 0 -29 14 -74 31 -100 29 -45 28 -47 -28 -58 -55 -11 -60 -21 -82
-148 -12 -75 -27 -150 -32 -168 -12 -38 632 -70 790 -39 171 33 291 246 284
506 l-2 115 60 0 c52 0 58 -6 50 -45 -50 -220 -99 -476 -100 -525 l-1 -60 210
0 c251 0 232 -23 312 365 54 260 56 265 108 265 l54 0 -46 -210 c-26 -116 -53
-256 -60 -311 l-13 -100 226 5 226 6 23 70 24 70 24 -73 24 -73 485 -14 c759
-23 720 -46 832 486 114 535 99 554 -422 554 -269 0 -299 -4 -352 -43 l-58
-43 -68 43 c-68 43 -77 43 -1347 49 l-1279 5 -94 -92 -94 -93 -48 87 -48 87
-319 0 -320 0 -35 -110 c-19 -60 -40 -123 -46 -140 -7 -18 -29 15 -58 86 -26
63 -58 128 -71 145 -32 38 -336 41 -387 3z m354 -189 c26 -52 78 -180 115
-285 75 -214 61 -226 139 120 23 105 47 206 52 225 9 31 247 58 247 28 0 -4
-31 -132 -69 -285 -38 -153 -80 -334 -94 -403 l-25 -125 -156 0 -155 0 -28 65
c-14 36 -53 144 -85 240 -73 218 -69 220 -128 -60 l-50 -235 -115 -6 c-137 -7
-133 -24 -65 269 27 119 64 280 81 357 17 77 35 151 40 165 5 16 49 25 128 25
l120 0 48 -95z m820 83 c17 -6 46 -58 64 -115 48 -146 48 -146 188 -3 l126
130 128 0 c161 0 164 10 -83 -250 -220 -231 -221 -234 -262 -490 l-13 -80
-118 0 c-135 0 -132 -8 -85 205 l32 147 -112 224 c-62 123 -112 228 -112 234
0 14 210 13 247 -2z m2880 -7 c107 -41 101 -311 -10 -467 -41 -57 -38 -101 16
-300 9 -32 -3 -35 -126 -30 l-136 6 -33 130 c-32 127 -34 130 -99 130 -66 0
-67 -1 -96 -135 l-29 -135 -119 0 c-118 0 -119 1 -107 51 7 27 27 124 44 215
46 251 34 234 170 234 88 0 122 -8 131 -30 36 -94 243 2 223 104 -8 42 -189
74 -231 41 -33 -26 -233 -22 -242 5 -15 46 -301 24 -313 -25 -6 -25 -36 -166
-67 -315 l-56 -270 -121 -6 -122 -6 58 276 c32 152 63 296 68 321 10 44 6 45
-150 45 -115 0 -160 -7 -160 -25 0 -18 -32 -23 -110 -18 -60 4 -110 15 -110
25 0 34 -274 22 -288 -14 -44 -116 -27 -128 189 -128 293 0 321 -31 249 -273
-55 -185 -80 -196 -472 -203 -370 -7 -359 -11 -316 113 l22 63 266 0 c283 0
288 2 290 110 0 12 -86 20 -219 20 -302 0 -333 41 -251 324 57 195 -3 186
1184 186 600 0 1044 -8 1073 -19z m868 -2 c84 -29 88 -68 35 -304 -26 -113
-57 -257 -70 -320 -33 -167 -52 -175 -386 -175 -401 0 -404 4 -323 406 67 330
75 350 154 384 79 34 499 41 590 9z"/>
<path d="M4973 997 c-63 -259 -69 -242 89 -240 151 3 133 -16 180 195 59 274
61 268 -89 268 l-126 0 -54 -223z m181 58 c-6 -25 -17 -79 -25 -120 -12 -65
-69 -112 -69 -57 0 72 51 222 76 222 19 0 25 -14 18 -45z"/>
</g>
</svg>
